<svg xmlns="http://www.w3.org/2000/svg" xmlns:xlink="http://www.w3.org/1999/xlink" width="34px" height="32px" style="margin-bottom: 0;">
                  <path fill-rule="evenodd"  fill="rgb(30, 115, 252)"
                   d="M32.872,30.917 C31.376,32.369 28.961,32.359 27.477,30.896 L25.201,28.670 C24.961,28.427 24.961,28.041 25.201,27.798 C25.447,27.549 25.853,27.542 26.108,27.783 L28.384,30.009 C29.366,30.941 30.928,30.941 31.910,30.009 C32.914,29.057 32.938,27.489 31.965,26.507 L30.971,25.534 C30.731,25.291 30.731,24.906 30.971,24.663 C31.217,24.414 31.623,24.407 31.878,24.648 L32.871,25.620 C32.879,25.627 32.886,25.634 32.893,25.641 C34.377,27.104 34.367,29.467 32.872,30.917 ZM29.584,22.583 C29.522,22.583 29.461,22.574 29.402,22.557 C29.402,22.557 29.402,22.557 29.401,22.557 C29.062,22.458 28.869,22.109 28.970,21.777 C30.008,18.362 29.512,14.677 27.608,11.641 C23.902,5.734 16.002,3.884 9.963,7.508 C9.944,7.521 9.924,7.532 9.904,7.543 C9.593,7.709 9.203,7.596 9.034,7.292 C8.865,6.988 8.980,6.607 9.291,6.442 C11.512,5.105 14.070,4.398 16.679,4.400 C18.037,4.401 19.388,4.594 20.690,4.972 C28.162,7.143 32.419,14.828 30.199,22.136 C30.117,22.401 29.868,22.583 29.584,22.583 ZM8.532,4.843 L7.891,4.216 C7.651,3.974 7.651,3.588 7.891,3.345 C8.137,3.096 8.543,3.089 8.798,3.330 L9.439,3.957 C9.679,4.200 9.679,4.585 9.439,4.828 C9.193,5.077 8.787,5.084 8.532,4.843 ZM5.968,2.335 L5.615,1.990 C4.633,1.058 3.071,1.058 2.089,1.990 C1.085,2.943 1.060,4.510 2.034,5.492 L6.233,9.600 C6.354,9.718 6.421,9.877 6.421,10.043 C6.421,10.389 6.134,10.670 5.780,10.670 C5.610,10.670 5.447,10.604 5.327,10.486 L1.128,6.380 C1.120,6.372 1.113,6.365 1.106,6.358 C-0.378,4.895 -0.368,2.533 1.127,1.082 C2.623,-0.369 5.038,-0.360 6.522,1.103 L6.874,1.449 C6.880,1.454 6.885,1.459 6.890,1.464 C7.136,1.713 7.129,2.110 6.874,2.351 C6.620,2.591 6.214,2.584 5.968,2.335 ZM4.786,11.985 C5.106,12.133 5.242,12.507 5.090,12.820 C3.234,16.652 3.483,21.142 5.752,24.755 C9.459,30.659 17.358,32.507 23.395,28.881 C23.414,28.868 23.434,28.856 23.454,28.845 C23.765,28.680 24.154,28.792 24.324,29.096 C24.493,29.401 24.378,29.781 24.067,29.947 C21.845,31.284 19.287,31.990 16.679,31.988 C14.593,31.987 12.532,31.534 10.647,30.661 C3.603,27.399 0.597,19.171 3.932,12.282 C4.084,11.969 4.466,11.836 4.786,11.985 ZM24.890,21.342 C25.099,21.301 25.315,21.366 25.466,21.513 L26.749,22.767 C26.999,23.012 26.999,23.409 26.749,23.654 L24.450,25.902 C22.991,27.329 20.625,27.329 19.166,25.902 L15.397,22.216 L13.286,24.281 C13.035,24.525 12.629,24.525 12.379,24.281 L11.097,23.026 C10.954,22.886 10.887,22.687 10.917,22.491 L11.513,18.415 L7.783,14.768 C6.825,13.831 6.825,12.311 7.783,11.374 C8.741,10.436 10.295,10.436 11.254,11.374 L14.884,14.923 L22.162,11.363 C22.409,11.243 22.707,11.290 22.902,11.481 L24.184,12.735 C24.435,12.980 24.435,13.377 24.184,13.621 L18.868,18.821 L22.021,21.903 L24.890,21.342 ZM12.832,22.951 L14.490,21.329 L12.644,19.524 L12.230,22.361 L12.832,22.951 ZM21.353,23.026 L17.506,19.264 C17.256,19.020 17.256,18.623 17.506,18.378 L22.823,13.178 L22.321,12.687 L15.042,16.247 C14.795,16.368 14.497,16.320 14.302,16.129 L10.345,12.260 C10.125,12.045 9.827,11.924 9.516,11.924 C8.869,11.925 8.344,12.438 8.345,13.071 C8.343,13.376 8.466,13.668 8.686,13.884 L12.641,17.752 L15.847,20.887 L20.068,25.015 C21.027,25.953 22.581,25.953 23.539,25.015 L25.385,23.210 L24.798,22.637 L21.930,23.198 C21.720,23.238 21.504,23.174 21.353,23.026 Z"/>
              </svg>